<svg id="visual" viewBox="0 0 900 300" width="900" height="300" xmlns="http://www.w3.org/2000/svg" xmlns:xlink="http://www.w3.org/1999/xlink" version="1.1"><path d="M0 214L21.5 210.5C43 207 86 200 128.8 194.2C171.7 188.3 214.3 183.7 257.2 187.7C300 191.7 343 204.3 385.8 204.7C428.7 205 471.3 193 514.2 190.8C557 188.7 600 196.3 642.8 202C685.7 207.7 728.3 211.3 771.2 208.3C814 205.3 857 195.7 878.5 190.8L900 186L900 301L878.5 301C857 301 814 301 771.2 301C728.3 301 685.7 301 642.8 301C600 301 557 301 514.2 301C471.3 301 428.7 301 385.8 301C343 301 300 301 257.2 301C214.3 301 171.7 301 128.8 301C86 301 43 301 21.5 301L0 301Z" fill="#03dac5"></path><path d="M0 205L21.5 210.2C43 215.3 86 225.7 128.8 228C171.7 230.3 214.3 224.7 257.2 223.2C300 221.7 343 224.3 385.8 224.3C428.7 224.3 471.3 221.7 514.2 217.5C557 213.3 600 207.7 642.8 206C685.7 204.3 728.3 206.7 771.2 210.7C814 214.7 857 220.3 878.5 223.2L900 226L900 301L878.5 301C857 301 814 301 771.2 301C728.3 301 685.7 301 642.8 301C600 301 557 301 514.2 301C471.3 301 428.7 301 385.8 301C343 301 300 301 257.2 301C214.3 301 171.7 301 128.8 301C86 301 43 301 21.5 301L0 301Z" fill="#00caee"></path><path d="M0 255L21.5 250.2C43 245.3 86 235.7 128.8 231.7C171.7 227.7 214.3 229.3 257.2 228.3C300 227.3 343 223.7 385.8 226.7C428.7 229.7 471.3 239.3 514.2 243.2C557 247 600 245 642.8 245.2C685.7 245.3 728.3 247.7 771.2 245.2C814 242.7 857 235.3 878.5 231.7L900 228L900 301L878.5 301C857 301 814 301 771.2 301C728.3 301 685.7 301 642.8 301C600 301 557 301 514.2 301C471.3 301 428.7 301 385.8 301C343 301 300 301 257.2 301C214.3 301 171.7 301 128.8 301C86 301 43 301 21.5 301L0 301Z" fill="#00b2ff"></path><path d="M0 251L21.5 249.7C43 248.3 86 245.7 128.8 246.8C171.7 248 214.3 253 257.2 255.5C300 258 343 258 385.8 256.2C428.7 254.3 471.3 250.7 514.2 249.2C557 247.7 600 248.3 642.8 251C685.7 253.7 728.3 258.3 771.2 257.5C814 256.7 857 250.3 878.5 247.2L900 244L900 301L878.5 301C857 301 814 301 771.2 301C728.3 301 685.7 301 642.8 301C600 301 557 301 514.2 301C471.3 301 428.7 301 385.8 301C343 301 300 301 257.2 301C214.3 301 171.7 301 128.8 301C86 301 43 301 21.5 301L0 301Z" fill="#0091ff"></path><path d="M0 269L21.5 268.8C43 268.7 86 268.3 128.8 271C171.7 273.7 214.3 279.3 257.2 281.3C300 283.3 343 281.7 385.8 278.8C428.7 276 471.3 272 514.2 272.5C557 273 600 278 642.8 280.5C685.7 283 728.3 283 771.2 280.8C814 278.7 857 274.3 878.5 272.2L900 270L900 301L878.5 301C857 301 814 301 771.2 301C728.3 301 685.7 301 642.8 301C600 301 557 301 514.2 301C471.3 301 428.7 301 385.8 301C343 301 300 301 257.2 301C214.3 301 171.7 301 128.8 301C86 301 43 301 21.5 301L0 301Z" fill="#6c63ff"></path></svg>